<mxfile host="app.diagrams.net" modified="2023-11-22T01:04:57.576Z" agent="Mozilla/5.0 (Macintosh; Intel Mac OS X 10_15_7) AppleWebKit/537.36 (KHTML, like Gecko) Chrome/119.0.0.0 Safari/537.36" version="22.1.3" etag="4PLjWa7n8xWj4CWEqTjc" type="github">
  <diagram name="第 1 页" id="46NX5BwKSvh8D3V_JPo3">
    <mxGraphModel>
      <root>
        <mxCell id="0" />
        <mxCell id="1" parent="0" />
      </root>
    </mxGraphModel>
  </diagram>
</mxfile>
